<?xml version="1.0"?><svg fill="#FFFFFF" xmlns="http://www.w3.org/2000/svg"  viewBox="0 0 50 50" width="500px" height="500px">    <path d="M 25 3 C 12.87 3 3 12.87 3 25 C 3 37.13 12.87 47 25 47 C 37.13 47 47 37.13 47 25 C 47 12.87 37.13 3 25 3 z M 23.699219 5 L 24.660156 5.0097656 C 24.770156 4.9997656 24.89 5 25 5 C 25.21 5 25.420859 4.9995313 25.630859 5.0195312 C 26.260859 5.0195312 27.25 5.3707031 27.25 6.4707031 C 27.25 7.2107031 26.630781 7.5591406 26.300781 7.6191406 L 27.800781 9.5507812 L 26.070312 9.3007812 L 25.009766 7.8496094 L 25.009766 9.3007812 L 23.699219 9.3007812 L 23.699219 5 z M 25.359375 5.9394531 L 24.970703 5.9707031 L 24.990234 7 L 25.400391 7 C 25.810391 7 25.990469 6.7092187 25.980469 6.4492188 C 25.970469 6.1792188 25.719375 5.9394531 25.359375 5.9394531 z M 31.480469 6.1894531 L 31.550781 6.1894531 C 31.650781 6.1894531 31.759141 6.1909375 31.869141 6.2109375 L 31.880859 6.2109375 C 31.930859 6.2209375 31.990781 6.2302344 32.050781 6.2402344 C 32.490781 6.3202344 32.890938 6.5097656 33.210938 6.7597656 C 33.880938 7.2897656 34.240312 8.1192187 34.070312 8.9492188 C 33.790312 10.399219 32.529453 11.040469 31.189453 10.730469 C 29.949453 10.450469 28.930156 9.1295313 29.160156 8.0195312 C 29.390156 6.8995312 30.350469 6.2094531 31.480469 6.1894531 z M 15.650391 7.3203125 L 19.529297 10.220703 L 18.099609 10.800781 L 17.470703 10.339844 L 16.109375 11.140625 L 16.269531 11.880859 L 15.029297 12.800781 L 14.490234 7.9902344 L 14.480469 7.9394531 L 15.470703 7.4199219 L 15.650391 7.3203125 z M 31.580078 7.3808594 C 31.020078 7.3708594 30.650781 7.6909375 30.550781 8.2109375 C 30.430781 8.8109375 30.750156 9.4503125 31.410156 9.5703125 C 32.060156 9.6903125 32.659297 9.2894531 32.779297 8.6894531 C 32.889297 8.0894531 32.480312 7.5203906 31.820312 7.4003906 C 31.740312 7.3903906 31.660078 7.3808594 31.580078 7.3808594 z M 15.699219 8.859375 L 15.970703 10.039062 L 16.689453 9.6191406 L 15.699219 8.859375 z M 37.619141 9.4902344 L 37.730469 9.5800781 L 38.589844 10.269531 L 38.570312 10.320312 L 37.740234 12.410156 L 39.820312 11.580078 L 39.859375 11.560547 L 40.689453 12.539062 L 40.660156 12.580078 L 38.080078 16.269531 L 37.25 15.099609 L 38.609375 13.259766 L 36.349609 14.179688 L 35.890625 13.740234 L 36.789062 11.509766 L 35.019531 12.890625 L 33.929688 12.039062 L 37.619141 9.4902344 z M 11.179688 10.519531 L 11.199219 10.539062 L 11.939453 11.189453 L 10.990234 12.220703 L 11.429688 12.640625 L 12.310547 11.669922 L 13.070312 12.359375 L 12.189453 13.300781 L 13.390625 14.359375 L 12.519531 15.369141 L 9.3808594 12.589844 L 11 10.720703 L 11.179688 10.519531 z M 25 11 C 33 11 39.5 17.5 39.5 25.5 C 39.5 33.5 33 40 25 40 C 17 40 10.5 33.5 10.5 25.5 C 10.5 17.5 17 11 25 11 z M 25 12 L 25 39 C 25.17 39 25.34 39.000234 25.5 38.990234 C 25.67 38.980234 25.84 38.980938 26 38.960938 C 32.98 38.440937 38.5 32.6 38.5 25.5 C 38.5 18.4 32.98 12.559063 26 12.039062 C 25.84 12.019063 25.67 12.019766 25.5 12.009766 C 25.34 11.999766 25.17 12 25 12 z M 24 12.039062 C 22.59 12.139063 21.25 12.460938 20 12.960938 L 20 23 L 24 23 L 24 12.039062 z M 17 14.640625 C 14.31 16.620625 12.370234 19.59 11.740234 23 L 17 23 L 17 14.640625 z M 28.880859 14.880859 C 29.090859 14.880859 29.259766 15.04 29.259766 15.25 C 29.259766 15.45 29.090859 15.619141 28.880859 15.619141 C 28.670859 15.619141 28.5 15.45 28.5 15.25 C 28.5 15.04 28.670859 14.880859 28.880859 14.880859 z M 29.849609 14.880859 C 30.059609 14.880859 30.230469 15.04 30.230469 15.25 C 30.230469 15.45 30.059609 15.619141 29.849609 15.619141 C 29.639609 15.619141 29.470703 15.45 29.470703 15.25 C 29.470703 15.04 29.639609 14.880859 29.849609 14.880859 z M 30.810547 14.880859 C 31.020547 14.880859 31.189453 15.04 31.189453 15.25 C 31.189453 15.45 31.020547 15.619141 30.810547 15.619141 C 30.600547 15.619141 30.429687 15.45 30.429688 15.25 C 30.429688 15.04 30.600547 14.880859 30.810547 14.880859 z M 31.779297 14.880859 C 31.989297 14.880859 32.160156 15.04 32.160156 15.25 C 32.160156 15.45 31.989297 15.619141 31.779297 15.619141 C 31.569297 15.619141 31.400391 15.45 31.400391 15.25 C 31.400391 15.04 31.569297 14.880859 31.779297 14.880859 z M 32.75 14.880859 C 32.96 14.880859 33.119141 15.04 33.119141 15.25 C 33.119141 15.45 32.95 15.619141 32.75 15.619141 C 32.54 15.619141 32.369141 15.45 32.369141 15.25 C 32.369141 15.04 32.54 14.880859 32.75 14.880859 z M 28.609375 15.849609 L 33.019531 15.849609 L 33.019531 16.449219 L 28.609375 16.449219 L 28.609375 15.849609 z M 42.740234 15.970703 L 43.820312 18.529297 L 42.859375 18.919922 L 42.300781 17.609375 L 41.839844 17.810547 L 42.369141 19.029297 L 41.429688 19.419922 L 40.869141 18.160156 L 40.390625 18.390625 L 40.960938 19.699219 L 39.929688 20.140625 L 38.820312 17.560547 L 42.740234 15.970703 z M 6.9296875 16.460938 L 6.9492188 16.470703 L 9.75 17.769531 L 10.490234 16.480469 L 11.429688 16.960938 L 10.210938 19.449219 L 6.390625 17.679688 L 6.3808594 17.679688 L 6.4492188 17.529297 L 6.6894531 17 L 6.9296875 16.460938 z M 28.609375 16.660156 L 33.019531 16.660156 L 33.019531 17.259766 L 28.609375 17.259766 L 28.609375 16.660156 z M 27.140625 17.369141 L 27.179688 17.369141 C 27.219687 17.369141 27.270078 17.379922 27.330078 17.419922 L 28.220703 18.050781 C 28.330703 18.130781 28.400391 18.280156 28.400391 18.410156 L 28.390625 19.269531 C 28.390625 19.609531 28.549531 19.899375 28.769531 20.109375 C 28.889531 20.219375 29.039453 20.320859 29.189453 20.380859 C 29.039453 20.430859 28.889531 20.530391 28.769531 20.650391 C 28.549531 20.850391 28.390625 21.140469 28.390625 21.480469 L 28.400391 22.349609 C 28.400391 22.469609 28.320938 22.630938 28.210938 22.710938 L 27.330078 23.330078 C 27.250078 23.390078 27.190391 23.390859 27.150391 23.380859 C 27.100391 23.360859 27.049766 23.329531 27.009766 23.269531 C 26.949766 23.169531 26.919375 23.050156 27.109375 22.910156 L 27.109375 22.900391 L 27.119141 22.900391 L 27.539062 22.560547 C 27.679063 22.460547 27.880859 22.280703 27.880859 21.970703 L 27.869141 21.259766 C 27.869141 21.109766 27.819922 20.940078 27.669922 20.830078 C 27.529922 20.710078 27.319141 20.699766 27.119141 20.759766 C 26.979141 20.809766 26.880547 20.860625 26.810547 20.890625 C 26.730547 20.920625 26.669297 20.939453 26.529297 20.939453 C 26.339297 20.939453 26.220625 20.869766 26.140625 20.759766 C 26.050625 20.649766 26 20.500391 26 20.400391 L 26 20.349609 C 26 20.249609 26.050625 20.100234 26.140625 19.990234 C 26.220625 19.880234 26.339297 19.810547 26.529297 19.810547 C 26.669297 19.810547 26.730547 19.829375 26.810547 19.859375 C 26.880547 19.879375 26.979141 19.940234 27.119141 19.990234 C 27.319141 20.050234 27.529922 20.039922 27.669922 19.919922 C 27.819922 19.809922 27.869141 19.640469 27.869141 19.480469 L 27.880859 18.779297 C 27.880859 18.469297 27.669297 18.289687 27.529297 18.179688 L 27.109375 17.849609 L 27.109375 17.839844 C 26.919375 17.699844 26.949766 17.580703 27.009766 17.470703 C 27.049766 17.420703 27.090625 17.389141 27.140625 17.369141 z M 34.849609 17.960938 C 35.339609 18.290937 35.840234 18.669688 36.240234 19.179688 C 36.690234 19.759687 37 20.499844 37 21.589844 C 37 23.639844 35.160625 25.289062 33.390625 25.289062 L 29.119141 25.289062 C 28.999141 25.289062 28.880781 25.349453 28.800781 25.439453 C 28.730781 25.529453 28.699219 25.630234 28.699219 25.740234 C 28.699219 25.840234 28.730781 25.949297 28.800781 26.029297 C 28.880781 26.119297 28.999141 26.179688 29.119141 26.179688 L 33.289062 26.179688 C 34.789062 26.179688 35.589844 27.189141 35.589844 28.369141 C 35.589844 29.529141 34.760781 30.619141 33.300781 30.619141 L 29.009766 30.619141 C 28.899766 30.619141 28.790703 30.67 28.720703 30.75 C 28.650703 30.83 28.630859 30.919531 28.630859 31.019531 C 28.630859 31.109531 28.660703 31.199297 28.720703 31.279297 C 28.790703 31.359297 28.9 31.410156 29 31.410156 L 32.199219 31.410156 C 32.889219 31.410156 33.480469 32.109297 33.480469 32.779297 C 33.480469 33.109297 33.389687 33.430391 33.179688 33.650391 C 32.979687 33.880391 32.649609 34.050781 32.099609 34.050781 L 30.179688 34.050781 C 30.109687 34.050781 30.029219 34.059141 29.949219 34.119141 C 29.879219 34.179141 29.820313 34.280625 29.820312 34.390625 C 29.830313 34.500625 29.890937 34.600391 29.960938 34.650391 C 30.030938 34.700391 30.109688 34.720703 30.179688 34.720703 L 31.460938 34.720703 C 31.640937 34.720703 31.769141 34.799453 31.869141 34.939453 C 31.979141 35.069453 32.039062 35.260156 32.039062 35.410156 C 32.039062 35.590156 31.969375 35.759141 31.859375 35.869141 C 31.779375 35.939141 31.679062 35.99 31.539062 36 C 31.539062 35.92 31.540234 35.840469 31.490234 35.730469 C 31.440234 35.610469 31.270625 35.509766 31.140625 35.509766 L 30.369141 35.509766 C 30.109141 35.509766 29.809609 35.410937 29.599609 35.210938 C 29.379609 35.010937 29.230469 34.730078 29.230469 34.330078 C 29.230469 33.960078 29.379844 33.699766 29.589844 33.509766 C 29.799844 33.319766 30.079062 33.220703 30.289062 33.220703 L 32.160156 33.220703 C 32.250156 33.220703 32.330156 33.200391 32.410156 33.150391 C 32.490156 33.100391 32.570312 32.999141 32.570312 32.869141 C 32.570312 32.739141 32.490156 32.630078 32.410156 32.580078 C 32.330156 32.530078 32.250156 32.519531 32.160156 32.519531 L 29.220703 32.519531 C 28.090703 32.519531 27.460938 31.679297 27.460938 30.779297 C 27.460938 29.979297 28.119141 29.029297 29.119141 29.029297 L 33.5 29.029297 C 33.61 29.029297 33.740547 28.970859 33.810547 28.880859 C 33.880547 28.800859 33.910156 28.689844 33.910156 28.589844 C 33.910156 28.489844 33.880547 28.390781 33.810547 28.300781 C 33.740547 28.210781 33.62 28.150391 33.5 28.150391 L 29.039062 28.150391 C 27.789062 28.150391 26.810547 27.190234 26.810547 25.740234 C 26.810547 24.520234 27.759922 23.279297 29.169922 23.279297 L 33.210938 23.279297 C 33.430937 23.279297 33.63 23.169531 33.75 23.019531 C 33.87 22.869531 33.919688 22.69 33.929688 22.5 C 33.929688 22.32 33.87 22.130469 33.75 21.980469 C 33.63 21.830469 33.430938 21.730469 33.210938 21.730469 L 28.900391 21.730469 L 28.900391 21.470703 C 28.900391 21.320703 28.979375 21.159062 29.109375 21.039062 C 29.239375 20.909063 29.409531 20.839844 29.519531 20.839844 L 31.939453 20.839844 C 32.029453 20.839844 32.120938 20.819766 32.210938 20.759766 C 32.310938 20.689766 32.390625 20.549141 32.390625 20.369141 C 32.390625 20.189141 32.340937 20.100234 32.210938 19.990234 C 32.120937 19.930234 32.029453 19.910156 31.939453 19.910156 L 29.519531 19.910156 C 29.409531 19.910156 29.239375 19.830938 29.109375 19.710938 C 28.979375 19.590937 28.900391 19.429531 28.900391 19.269531 L 28.900391 19.119141 L 31.849609 19.119141 C 32.009609 19.119141 32.159297 19.060703 32.279297 18.970703 C 32.389297 18.880703 32.490234 18.730781 32.490234 18.550781 L 32.490234 18.320312 L 33.919922 18.320312 C 34.299922 18.330313 34.619609 18.180937 34.849609 17.960938 z M 9.6601562 21.080078 L 9.4492188 22.580078 L 8.6894531 22.759766 L 8.5996094 24.349609 L 9.2402344 24.650391 L 9.2695312 26.189453 L 5.0292969 23.910156 L 5 23.890625 L 5.0800781 23.179688 L 5.1601562 22.550781 L 9.6601562 21.080078 z M 42.720703 21.220703 C 43.910703 21.220703 44.660391 21.949688 44.900391 22.929688 C 44.910391 22.939688 44.910391 22.950937 44.900391 22.960938 C 44.970391 23.190938 45 23.429687 45 23.679688 C 45 23.809687 44.990703 23.940312 44.970703 24.070312 C 44.820703 25.240312 43.950703 26.140625 42.720703 26.140625 C 41.350703 26.140625 40.460938 24.909688 40.460938 23.679688 C 40.460938 22.449687 41.210703 21.220703 42.720703 21.220703 z M 42.75 22.550781 C 42.08 22.550781 41.720703 23.099688 41.720703 23.679688 C 41.720703 24.259688 42.1 24.810547 42.75 24.810547 C 43.4 24.810547 43.800781 24.179688 43.800781 23.679688 C 43.800781 23.169688 43.41 22.550781 42.75 22.550781 z M 7.6796875 23.019531 L 6.4101562 23.330078 L 7.6308594 23.900391 L 7.6796875 23.019531 z M 11.509766 26 C 11.669766 30.25 13.79 33.999375 17 36.359375 L 17 26 L 11.509766 26 z M 20 26 L 20 38.039062 C 21.25 38.539062 22.59 38.860937 24 38.960938 L 24 26 L 20 26 z"/></svg>