<?xml version="1.0" standalone="no"?>
<!DOCTYPE svg PUBLIC "-//W3C//DTD SVG 20010904//EN"
 "http://www.w3.org/TR/2001/REC-SVG-20010904/DTD/svg10.dtd">
<svg version="1.0" xmlns="http://www.w3.org/2000/svg"
 width="512.000000pt" height="512.000000pt" viewBox="0 0 512.000000 512.000000"
 preserveAspectRatio="xMidYMid meet">

<g transform="translate(0.000000,512.000000) scale(0.100000,-0.100000)"
fill="#f0f5f9" stroke="none">
<path d="M830 4427 c-19 -6 -54 -30 -77 -53 -62 -63 -80 -151 -45 -226 25 -55
1713 -1745 1767 -1769 51 -24 119 -24 170 0 54 24 1742 1714 1767 1769 35 75
17 163 -46 226 -63 64 -87 68 -411 64 -249 -3 -284 -5 -315 -21 -19 -11 -270
-254 -557 -540 l-523 -522 -522 522 c-288 286 -539 529 -558 540 -31 16 -64
18 -325 20 -195 1 -301 -2 -325 -10z" />
<path d="M815 2746 c-66 -29 -124 -116 -125 -186 0 -97 -38 -55 878 -973 514
-514 873 -867 897 -880 54 -28 136 -28 190 0 59 32 1740 1717 1760 1765 31 76
10 170 -51 232 -54 54 -68 56 -389 56 -251 0 -301 -2 -328 -16 -18 -9 -269
-253 -559 -542 l-528 -527 -527 527 c-291 289 -542 533 -560 542 -27 14 -77
16 -330 16 -225 -1 -305 -4 -328 -14z"/>
</g>
</svg>
