<?xml version="1.0" standalone="no"?>
<!DOCTYPE svg PUBLIC "-//W3C//DTD SVG 20010904//EN"
 "http://www.w3.org/TR/2001/REC-SVG-20010904/DTD/svg10.dtd">
<svg version="1.0" xmlns="http://www.w3.org/2000/svg"
 width="512.000000pt" height="512.000000pt" viewBox="0 0 512.000000 512.000000"
 preserveAspectRatio="xMidYMid meet">

<g transform="translate(0.000000,512.000000) scale(0.100000,-0.100000)"
fill="#ffffff" stroke="none">
<path d="M2490 4960 c-650 -68 -1224 -371 -1634 -863 l-57 -68 218 -138 c120
-76 350 -222 512 -324 l295 -186 80 71 c234 207 498 308 805 308 201 0 368
-39 541 -125 337 -170 581 -496 645 -864 19 -107 19 -315 0 -422 -64 -368
-308 -694 -645 -864 -173 -86 -340 -125 -541 -125 -307 0 -571 101 -805 308
l-80 71 -513 -324 -512 -323 57 -69 c386 -463 914 -757 1524 -849 143 -22 491
-25 630 -5 384 53 717 176 1021 377 1030 679 1383 2015 822 3114 -326 637
-938 1108 -1634 1255 -207 44 -540 65 -729 45z m1040 -785 c7 -4 -91 -260
-105 -274 -5 -5 -241 89 -262 105 -12 8 -6 32 42 146 l57 136 130 -54 c71 -30
133 -56 138 -59z m-1315 -30 c29 -71 50 -133 47 -137 -12 -12 -253 -109 -264
-106 -14 5 -119 261 -110 269 13 13 247 108 260 106 8 -1 38 -60 67 -132z
m2162 -886 c29 -68 51 -130 50 -137 -2 -16 -259 -124 -269 -114 -12 13 -109
254 -106 264 4 11 248 117 262 114 6 -1 34 -58 63 -127z m-94 -1185 c62 -26
122 -50 134 -55 22 -8 21 -10 -32 -139 -30 -72 -57 -135 -60 -140 -4 -6 -259
92 -274 106 -8 8 104 274 115 274 2 0 55 -21 117 -46z m-799 -983 c31 -74 53
-138 49 -142 -10 -9 -249 -109 -262 -109 -5 0 -24 35 -41 78 -18 42 -43 102
-55 132 -13 30 -20 58 -17 62 6 6 265 116 268 114 1 -1 27 -61 58 -135z
m-1351 79 c67 -28 126 -55 130 -59 5 -5 -13 -60 -38 -122 -26 -63 -51 -124
-56 -136 -8 -23 -5 -24 -251 80 l-36 15 56 136 c31 75 60 136 64 136 5 0 64
-23 131 -50z"/>
<path d="M355 3861 c-57 -94 -169 -336 -209 -450 -226 -643 -188 -1337 105
-1949 72 -151 135 -262 149 -262 8 0 1238 775 1254 790 5 5 -9 44 -32 92 -80
163 -112 299 -112 478 0 179 32 315 112 478 23 48 37 87 32 92 -16 15 -1246
790 -1254 790 -5 0 -25 -27 -45 -59z m625 -822 c69 -12 126 -23 128 -24 3 -2
-49 -286 -53 -292 -2 -3 -288 48 -293 52 -1 1 10 68 25 149 25 137 29 147 48
143 11 -3 76 -15 145 -28z m103 -785 c15 -81 26 -148 25 -149 -6 -3 -291 -55
-293 -53 -4 6 -56 291 -53 293 4 3 258 52 278 54 12 1 22 -31 43 -145z"/>
<path d="M2530 3446 c-418 -87 -720 -459 -720 -886 0 -433 301 -799 729 -885
112 -23 304 -16 409 14 398 115 662 461 662 866 0 416 -259 759 -662 876 -94
27 -320 35 -418 15z m370 -315 c238 -82 396 -292 408 -541 11 -246 -116 -463
-334 -569 -291 -142 -644 -27 -794 260 -184 353 12 773 405 868 69 17 241 7
315 -18z"/>
<path d="M2624 2850 c-54 -17 -128 -73 -161 -123 -103 -155 -50 -349 120 -439
61 -33 193 -33 257 1 61 32 107 76 138 136 23 43 27 62 27 135 0 70 -4 93 -24
130 -54 104 -142 161 -256 166 -38 2 -84 -1 -101 -6z"/>
</g>
</svg>
